<svg xmlns="http://www.w3.org/2000/svg" xmlns:xlink="http://www.w3.org/1999/xlink" width="100" zoomAndPan="magnify" viewBox="0 0 75 30.000001" height="40" preserveAspectRatio="xMidYMid meet" version="1.0"><defs><g/><clipPath id="7ebfbf56e4"><path d="M 4 7.257812 L 20.082031 7.257812 L 20.082031 12 L 4 12 Z M 4 7.257812 " clip-rule="nonzero"/></clipPath><clipPath id="949b9650b2"><path d="M 1.933594 17 L 18 17 L 18 21.773438 L 1.933594 21.773438 Z M 1.933594 17 " clip-rule="nonzero"/></clipPath></defs><g clip-path="url(#7ebfbf56e4)"><path fill="#ff5722" d="M 7.433594 7.257812 L 20.132812 7.257812 L 17.167969 11.269531 L 4.46875 11.269531 Z M 7.433594 7.257812 " fill-opacity="1" fill-rule="evenodd"/></g><path fill="#ff5722" d="M 4.46875 11.269531 L 10.820312 11.269531 L 7.605469 15.597656 L 4.816406 11.746094 Z M 4.46875 11.269531 " fill-opacity="1" fill-rule="evenodd"/><g clip-path="url(#949b9650b2)"><path fill="#ff5722" d="M 14.640625 21.773438 L 1.941406 21.773438 L 4.910156 17.765625 L 17.613281 17.765625 Z M 14.640625 21.773438 " fill-opacity="1" fill-rule="evenodd"/></g><path fill="#ff5722" d="M 17.613281 17.765625 L 11.261719 17.765625 L 14.46875 13.433594 L 17.265625 17.285156 Z M 17.613281 17.765625 " fill-opacity="1" fill-rule="evenodd"/><g fill="#ff5722" fill-opacity="1"><g transform="translate(20.137525, 17.37106)"><g><path d="M 2.640625 0.0625 C 2.222656 0.0625 1.847656 -0.00390625 1.515625 -0.140625 C 1.191406 -0.285156 0.929688 -0.492188 0.734375 -0.765625 C 0.535156 -1.035156 0.4375 -1.351562 0.4375 -1.71875 L 1.71875 -1.71875 C 1.726562 -1.46875 1.8125 -1.269531 1.96875 -1.125 C 2.125 -0.988281 2.34375 -0.921875 2.625 -0.921875 C 2.894531 -0.921875 3.109375 -0.988281 3.265625 -1.125 C 3.429688 -1.257812 3.515625 -1.429688 3.515625 -1.640625 C 3.515625 -1.816406 3.457031 -1.960938 3.34375 -2.078125 C 3.238281 -2.191406 3.101562 -2.28125 2.9375 -2.34375 C 2.78125 -2.414062 2.5625 -2.488281 2.28125 -2.5625 C 1.894531 -2.675781 1.578125 -2.789062 1.328125 -2.90625 C 1.085938 -3.019531 0.878906 -3.1875 0.703125 -3.40625 C 0.535156 -3.632812 0.453125 -3.9375 0.453125 -4.3125 C 0.453125 -4.664062 0.539062 -4.972656 0.71875 -5.234375 C 0.894531 -5.492188 1.140625 -5.691406 1.453125 -5.828125 C 1.773438 -5.972656 2.140625 -6.046875 2.546875 -6.046875 C 3.160156 -6.046875 3.660156 -5.894531 4.046875 -5.59375 C 4.429688 -5.289062 4.644531 -4.875 4.6875 -4.34375 L 3.375 -4.34375 C 3.363281 -4.550781 3.273438 -4.71875 3.109375 -4.84375 C 2.941406 -4.976562 2.726562 -5.046875 2.46875 -5.046875 C 2.226562 -5.046875 2.039062 -4.984375 1.90625 -4.859375 C 1.769531 -4.742188 1.703125 -4.570312 1.703125 -4.34375 C 1.703125 -4.1875 1.753906 -4.054688 1.859375 -3.953125 C 1.960938 -3.847656 2.09375 -3.757812 2.25 -3.6875 C 2.40625 -3.625 2.625 -3.550781 2.90625 -3.46875 C 3.289062 -3.351562 3.601562 -3.238281 3.84375 -3.125 C 4.09375 -3.007812 4.304688 -2.835938 4.484375 -2.609375 C 4.660156 -2.390625 4.75 -2.09375 4.75 -1.71875 C 4.75 -1.40625 4.664062 -1.109375 4.5 -0.828125 C 4.332031 -0.554688 4.085938 -0.335938 3.765625 -0.171875 C 3.453125 -0.015625 3.078125 0.0625 2.640625 0.0625 Z M 2.640625 0.0625 "/></g></g></g><g fill="#ff5722" fill-opacity="1"><g transform="translate(25.335383, 17.37106)"><g><path d="M 0.296875 -2.984375 C 0.296875 -3.566406 0.425781 -4.085938 0.6875 -4.546875 C 0.957031 -5.015625 1.320312 -5.378906 1.78125 -5.640625 C 2.238281 -5.898438 2.75 -6.03125 3.3125 -6.03125 C 3.976562 -6.03125 4.5625 -5.859375 5.0625 -5.515625 C 5.5625 -5.179688 5.910156 -4.710938 6.109375 -4.109375 L 4.75 -4.109375 C 4.601562 -4.390625 4.40625 -4.597656 4.15625 -4.734375 C 3.914062 -4.878906 3.632812 -4.953125 3.3125 -4.953125 C 2.96875 -4.953125 2.660156 -4.867188 2.390625 -4.703125 C 2.117188 -4.546875 1.90625 -4.316406 1.75 -4.015625 C 1.601562 -3.722656 1.53125 -3.378906 1.53125 -2.984375 C 1.53125 -2.585938 1.601562 -2.238281 1.75 -1.9375 C 1.90625 -1.644531 2.117188 -1.414062 2.390625 -1.25 C 2.660156 -1.09375 2.96875 -1.015625 3.3125 -1.015625 C 3.632812 -1.015625 3.914062 -1.085938 4.15625 -1.234375 C 4.40625 -1.378906 4.601562 -1.59375 4.75 -1.875 L 6.109375 -1.875 C 5.910156 -1.269531 5.5625 -0.796875 5.0625 -0.453125 C 4.570312 -0.117188 3.988281 0.046875 3.3125 0.046875 C 2.75 0.046875 2.238281 -0.078125 1.78125 -0.328125 C 1.320312 -0.585938 0.957031 -0.945312 0.6875 -1.40625 C 0.425781 -1.875 0.296875 -2.398438 0.296875 -2.984375 Z M 0.296875 -2.984375 "/></g></g></g><g fill="#ff5722" fill-opacity="1"><g transform="translate(31.890315, 17.37106)"><g><path d="M 4.9375 -4.109375 C 4.9375 -3.796875 4.859375 -3.5 4.703125 -3.21875 C 4.554688 -2.9375 4.320312 -2.707031 4 -2.53125 C 3.675781 -2.363281 3.269531 -2.28125 2.78125 -2.28125 L 1.78125 -2.28125 L 1.78125 0 L 0.59375 0 L 0.59375 -5.953125 L 2.78125 -5.953125 C 3.238281 -5.953125 3.628906 -5.875 3.953125 -5.71875 C 4.273438 -5.5625 4.519531 -5.34375 4.6875 -5.0625 C 4.851562 -4.78125 4.9375 -4.460938 4.9375 -4.109375 Z M 2.734375 -3.25 C 3.054688 -3.25 3.296875 -3.320312 3.453125 -3.46875 C 3.617188 -3.625 3.703125 -3.835938 3.703125 -4.109375 C 3.703125 -4.691406 3.378906 -4.984375 2.734375 -4.984375 L 1.78125 -4.984375 L 1.78125 -3.25 Z M 2.734375 -3.25 "/></g></g></g><g fill="#ff5722" fill-opacity="1"><g transform="translate(37.079638, 17.37106)"><g><path d="M 3.65625 0 L 2.34375 -2.328125 L 1.78125 -2.328125 L 1.78125 0 L 0.59375 0 L 0.59375 -5.953125 L 2.828125 -5.953125 C 3.285156 -5.953125 3.675781 -5.867188 4 -5.703125 C 4.320312 -5.546875 4.5625 -5.328125 4.71875 -5.046875 C 4.882812 -4.773438 4.96875 -4.46875 4.96875 -4.125 C 4.96875 -3.738281 4.851562 -3.382812 4.625 -3.0625 C 4.40625 -2.75 4.070312 -2.535156 3.625 -2.421875 L 5.046875 0 Z M 1.78125 -3.21875 L 2.78125 -3.21875 C 3.101562 -3.21875 3.34375 -3.296875 3.5 -3.453125 C 3.664062 -3.609375 3.75 -3.828125 3.75 -4.109375 C 3.75 -4.378906 3.664062 -4.585938 3.5 -4.734375 C 3.34375 -4.890625 3.101562 -4.96875 2.78125 -4.96875 L 1.78125 -4.96875 Z M 1.78125 -3.21875 "/></g></g></g><g fill="#ff5722" fill-opacity="1"><g transform="translate(42.550616, 17.37106)"><g><path d="M 3.359375 0.0625 C 2.796875 0.0625 2.28125 -0.0664062 1.8125 -0.328125 C 1.351562 -0.585938 0.984375 -0.945312 0.703125 -1.40625 C 0.429688 -1.875 0.296875 -2.40625 0.296875 -3 C 0.296875 -3.570312 0.429688 -4.085938 0.703125 -4.546875 C 0.984375 -5.015625 1.351562 -5.378906 1.8125 -5.640625 C 2.28125 -5.910156 2.796875 -6.046875 3.359375 -6.046875 C 3.921875 -6.046875 4.429688 -5.910156 4.890625 -5.640625 C 5.359375 -5.378906 5.726562 -5.015625 6 -4.546875 C 6.269531 -4.085938 6.40625 -3.570312 6.40625 -3 C 6.40625 -2.40625 6.269531 -1.875 6 -1.40625 C 5.726562 -0.945312 5.359375 -0.585938 4.890625 -0.328125 C 4.421875 -0.0664062 3.910156 0.0625 3.359375 0.0625 Z M 3.359375 -1 C 3.710938 -1 4.023438 -1.082031 4.296875 -1.25 C 4.566406 -1.414062 4.78125 -1.644531 4.9375 -1.9375 C 5.09375 -2.238281 5.171875 -2.59375 5.171875 -3 C 5.171875 -3.394531 5.09375 -3.738281 4.9375 -4.03125 C 4.78125 -4.332031 4.566406 -4.5625 4.296875 -4.71875 C 4.023438 -4.882812 3.710938 -4.96875 3.359375 -4.96875 C 2.992188 -4.96875 2.671875 -4.882812 2.390625 -4.71875 C 2.117188 -4.5625 1.90625 -4.332031 1.75 -4.03125 C 1.601562 -3.738281 1.53125 -3.394531 1.53125 -3 C 1.53125 -2.59375 1.601562 -2.238281 1.75 -1.9375 C 1.90625 -1.644531 2.117188 -1.414062 2.390625 -1.25 C 2.671875 -1.082031 2.992188 -1 3.359375 -1 Z M 3.359375 -1 "/></g></g></g><g fill="#ff5722" fill-opacity="1"><g transform="translate(49.250645, 17.37106)"><g><path d="M 7.078125 -5.953125 L 7.078125 0 L 5.890625 0 L 5.890625 -3.875 L 4.296875 0 L 3.390625 0 L 1.78125 -3.875 L 1.78125 0 L 0.59375 0 L 0.59375 -5.953125 L 1.9375 -5.953125 L 3.84375 -1.53125 L 5.734375 -5.953125 Z M 7.078125 -5.953125 "/></g></g></g><g fill="#ff5722" fill-opacity="1"><g transform="translate(56.92367, 17.37106)"><g><path d="M 4.9375 -4.109375 C 4.9375 -3.796875 4.859375 -3.5 4.703125 -3.21875 C 4.554688 -2.9375 4.320312 -2.707031 4 -2.53125 C 3.675781 -2.363281 3.269531 -2.28125 2.78125 -2.28125 L 1.78125 -2.28125 L 1.78125 0 L 0.59375 0 L 0.59375 -5.953125 L 2.78125 -5.953125 C 3.238281 -5.953125 3.628906 -5.875 3.953125 -5.71875 C 4.273438 -5.5625 4.519531 -5.34375 4.6875 -5.0625 C 4.851562 -4.78125 4.9375 -4.460938 4.9375 -4.109375 Z M 2.734375 -3.25 C 3.054688 -3.25 3.296875 -3.320312 3.453125 -3.46875 C 3.617188 -3.625 3.703125 -3.835938 3.703125 -4.109375 C 3.703125 -4.691406 3.378906 -4.984375 2.734375 -4.984375 L 1.78125 -4.984375 L 1.78125 -3.25 Z M 2.734375 -3.25 "/></g></g></g><g fill="#ff5722" fill-opacity="1"><g transform="translate(62.112994, 17.37106)"><g><path d="M 4.640625 -5.953125 L 4.640625 -4.984375 L 3.046875 -4.984375 L 3.046875 0 L 1.859375 0 L 1.859375 -4.984375 L 0.265625 -4.984375 L 0.265625 -5.953125 Z M 4.640625 -5.953125 "/></g></g></g><g fill="#ff5722" fill-opacity="1"><g transform="translate(67.037728, 17.37106)"><g><path d="M 2.640625 0.0625 C 2.222656 0.0625 1.847656 -0.00390625 1.515625 -0.140625 C 1.191406 -0.285156 0.929688 -0.492188 0.734375 -0.765625 C 0.535156 -1.035156 0.4375 -1.351562 0.4375 -1.71875 L 1.71875 -1.71875 C 1.726562 -1.46875 1.8125 -1.269531 1.96875 -1.125 C 2.125 -0.988281 2.34375 -0.921875 2.625 -0.921875 C 2.894531 -0.921875 3.109375 -0.988281 3.265625 -1.125 C 3.429688 -1.257812 3.515625 -1.429688 3.515625 -1.640625 C 3.515625 -1.816406 3.457031 -1.960938 3.34375 -2.078125 C 3.238281 -2.191406 3.101562 -2.28125 2.9375 -2.34375 C 2.78125 -2.414062 2.5625 -2.488281 2.28125 -2.5625 C 1.894531 -2.675781 1.578125 -2.789062 1.328125 -2.90625 C 1.085938 -3.019531 0.878906 -3.1875 0.703125 -3.40625 C 0.535156 -3.632812 0.453125 -3.9375 0.453125 -4.3125 C 0.453125 -4.664062 0.539062 -4.972656 0.71875 -5.234375 C 0.894531 -5.492188 1.140625 -5.691406 1.453125 -5.828125 C 1.773438 -5.972656 2.140625 -6.046875 2.546875 -6.046875 C 3.160156 -6.046875 3.660156 -5.894531 4.046875 -5.59375 C 4.429688 -5.289062 4.644531 -4.875 4.6875 -4.34375 L 3.375 -4.34375 C 3.363281 -4.550781 3.273438 -4.71875 3.109375 -4.84375 C 2.941406 -4.976562 2.726562 -5.046875 2.46875 -5.046875 C 2.226562 -5.046875 2.039062 -4.984375 1.90625 -4.859375 C 1.769531 -4.742188 1.703125 -4.570312 1.703125 -4.34375 C 1.703125 -4.1875 1.753906 -4.054688 1.859375 -3.953125 C 1.960938 -3.847656 2.09375 -3.757812 2.25 -3.6875 C 2.40625 -3.625 2.625 -3.550781 2.90625 -3.46875 C 3.289062 -3.351562 3.601562 -3.238281 3.84375 -3.125 C 4.09375 -3.007812 4.304688 -2.835938 4.484375 -2.609375 C 4.660156 -2.390625 4.75 -2.09375 4.75 -1.71875 C 4.75 -1.40625 4.664062 -1.109375 4.5 -0.828125 C 4.332031 -0.554688 4.085938 -0.335938 3.765625 -0.171875 C 3.453125 -0.015625 3.078125 0.0625 2.640625 0.0625 Z M 2.640625 0.0625 "/></g></g></g></svg>